<?xml version="1.0" encoding="UTF-8"?>
<svg id="Calque_2" data-name="Calque 2" xmlns="http://www.w3.org/2000/svg" viewBox="0 0 841.89 595.28">
  <defs>
    <style>
      .cls-1 {
        fill: #63184a;
      }

      .cls-1, .cls-2 {
        stroke-width: 0px;
      }

      .cls-2 {
        fill: #d7c800;
      }
    </style>
  </defs>
  <path class="cls-2" d="m505.53,290.65c-15.22.54-27.29,7.72-27.29,16.45s13.06,16.45,29.16,16.45,29.16-7.37,29.16-16.45-13.06-16.45-29.16-16.45c-.63,0-1.25-.02-1.87,0Zm-4.86,3.18c4.06-.42,9.17,1.47,13.46,5.33,6.41,5.78,8.59,13.89,4.86,18.13l-.09.09c-3.8,4.22-12.15,2.92-18.6-2.9-6.45-5.81-8.57-14.01-4.77-18.22,1.28-1.42,3.09-2.22,5.14-2.43Zm30.65,42.44h-47.85v-6.46h47.85v6.46Z"/>
  <path class="cls-1" d="m468.52,320.61v-9.95l.22-10.88-1.29-.8-15.86,5.03c-2.73-10.67-11.56-16.99-24.7-16.99h-22.29v4.03l5.65.58c.12,6.21.12,12.45.12,18.64v2.52c0,6.59,0,12.96-.13,19.18l-5.92.38v-21.62l.23-10.61-1.18-.8-14.92,2.44v2.89l4.08.94-.24,21.16c-2.02,1.96-4.4,3.42-6.47,3.42-2.56,0-4.07-1.51-4.07-6.19v-13.26l.38-10.61-1.18-.8-9.15,1.3-.22-13.6h-40.03l-.27,13.42c-2.64-.97-5.31-1.5-8.38-1.5-10.11,0-15.66,5.35-15.66,12.26,0,5.64,3.28,9.49,9.08,11.19l4.04,1.17c4.94,1.45,6.33,3,6.33,5.36,0,3.02-2.38,4.42-6.69,4.42-2.89,0-5.2-.73-7.77-2.1l-1.29-7.9h-4.03v.05h-.66l-1.5,8.73h-18.54c-.12-6.25-.13-12.57-.13-19.04h8.19l.87,5.83h4.35v-16.15h-4.35l-.92,5.9h-8.13c0-5.87.02-11.68.13-17.39h12.59l1.49,8.68h6.26l-.52-12.92h-37.3v4.03l4.65.58c.12,6.21.12,12.45.12,18.64v2.78c0,6.29,0,12.52-.12,18.64l-4.65.58v4.03h43.27,0c2.48.77,5.1,1.17,7.98,1.17,10.57,0,16.96-4.56,16.96-12.49,0-5.57-2.85-9.47-9.97-11.6l-3.66-1.04c-5.15-1.55-6.27-2.99-6.27-5.06,0-2.72,2.24-4.2,5.59-4.2,1.69,0,2.95.18,4.12.58l1.52,6.53h2.84l5.83.1,2.11-19.03h6.08c.12,6.33.13,12.7.13,19.01v2.78c0,6.3,0,12.55-.12,18.68l-4.4.54v4.03h23.69v-4.03l-6.46-.64c-.11-6.19-.12-12.42-.12-18.63v-2.72c0-6.42,0-12.78.13-19.01h6.27l1.44,10.23h-.02s.47,3.27.47,3.27l3.82.86-.25,18.32c-.13,9.9,4.16,13.5,10.59,13.5,4.81,0,8.9-2.39,12.17-6.61l.44,6.29,17.54-.82h15.13c16.39,0,26.95-9.12,26.95-24.78,0-1.42-.11-2.77-.28-4.09l4.15.16c.15,3,.22,5.33.22,9.45v3.58c0,3.27-.04,7.72-.11,11.24l-4.88.92v3.49h20.9v-3.49l-3.89-.8c-.07-3.58-.11-8.11-.11-11.36Zm-42.92,11.36h-2.49c-.12-6.32-.13-12.7-.13-19.24v-2.47c0-6.39,0-12.72.13-18.93h2.63c8.45,0,13.76,7.09,13.76,20.29s-5.31,20.35-13.9,20.35Zm30.62-44.52c0-3.5,2.82-5.97,6.36-5.97s6.36,2.47,6.36,5.97-2.83,5.97-6.36,5.97-6.36-2.49-6.36-5.97Zm100.99,50.05c-4.9,0-9.1-1.14-13.05-3.45l.19-9.2h6.03l1.26,7.42c1.78.71,3.55,1.09,5.61,1.09,4.31,0,6.69-1.41,6.69-4.42,0-2.36-1.38-3.9-6.33-5.36l-4.04-1.17c-5.8-1.7-9.08-5.54-9.08-11.19,0-6.92,5.55-12.26,15.66-12.26,4.43,0,8.01,1.07,11.89,3.02l-.52,8.22h-6.02l-1.52-6.53c-1.17-.4-2.43-.58-4.12-.58-3.35,0-5.59,1.48-5.59,4.2,0,2.08,1.12,3.51,6.27,5.06l3.66,1.04c7.12,2.13,9.97,6.03,9.97,11.6,0,7.93-6.39,12.49-16.96,12.49Zm-273.96,31.44c0-3.01-2.11-4.06-5.05-4.06h-4.52v14.44h1.84v-6.1h2.61l3.48,6.1h2.08l-3.68-6.32c1.96-.48,3.25-1.81,3.25-4.06Zm-7.74-2.57h2.42c2.25,0,3.48.67,3.48,2.57s-1.24,2.78-3.48,2.78h-2.42v-5.36Zm14.61,11.39h6.71v1.56h-8.54v-14.44h8.32v1.56h-6.49v4.52h5.47v1.56h-5.47v5.25Zm20.72-1.42l1.01,1.15c-1.14,1.32-2.55,2.08-4.43,2.08-3.6,0-6.29-2.78-6.29-7.47s2.74-7.5,6.41-7.5c1.75,0,3.13.85,3.97,1.78l-1.01,1.2c-.76-.81-1.71-1.36-2.93-1.36-2.73,0-4.54,2.24-4.54,5.83s1.73,5.91,4.47,5.91c1.38,0,2.43-.6,3.35-1.62Zm10.47-11.73c-3.63,0-6.17,2.81-6.17,7.43s2.55,7.54,6.17,7.54,6.17-2.91,6.17-7.54-2.55-7.43-6.17-7.43Zm0,13.35c-2.58,0-4.27-2.32-4.27-5.92s1.7-5.82,4.27-5.82,4.27,2.22,4.27,5.82-1.7,5.92-4.27,5.92Zm20.94-9.03c0-3.01-2.11-4.06-5.05-4.06h-4.52v14.44h1.84v-6.1h2.61l3.48,6.1h2.08l-3.68-6.32c1.96-.48,3.25-1.81,3.25-4.06Zm-7.74-2.57h2.42c2.25,0,3.48.67,3.48,2.57s-1.24,2.78-3.48,2.78h-2.42v-5.36Zm16.38-1.49h-3.61v14.44h3.69c4.36,0,6.74-2.68,6.74-7.27s-2.38-7.17-6.82-7.17Zm-.14,12.93h-1.64v-11.43h1.64c3.38,0,5.06,2.01,5.06,5.66s-1.68,5.77-5.06,5.77Zm12.14-12.93h1.84v14.44h-1.84v-14.44Zm16.41,0h1.75v14.44h-1.9l-5.23-9.09-1.56-2.98h-.09c.09,1.46.23,3,.23,4.51v7.56h-1.75v-14.44h1.9l5.23,9.08,1.56,2.99h.09c-.09-1.46-.23-3.08-.23-4.59v-7.47Zm13.19,6.96h4.73v6.07c-.93.97-2.51,1.68-4.45,1.68-3.81,0-6.52-2.78-6.52-7.47s2.8-7.5,6.63-7.5c2,0,3.32.91,4.16,1.78l-1.01,1.2c-.73-.75-1.66-1.36-3.11-1.36-2.91,0-4.78,2.24-4.78,5.83s1.72,5.91,4.8,5.91c1.04,0,2.03-.31,2.6-.85v-3.76h-3.06v-1.52Zm27.67-.3h-1.68c-.45,1.65-1.15,3.07-2.06,4.24-1.35-1.12-2.68-2.56-3.63-4.03,1.61-1.16,3.25-2.38,3.25-4.27,0-1.68-1.05-2.86-2.84-2.86-2,0-3.33,1.5-3.33,3.43,0,1.04.36,2.2.95,3.37-1.49,1.03-2.85,2.23-2.85,4.18,0,2.32,1.79,4,4.4,4,1.71,0,3.06-.66,4.17-1.68,1.16.83,2.29,1.4,3.3,1.68l.49-1.51c-.81-.23-1.74-.72-2.72-1.39,1.14-1.51,1.98-3.25,2.54-5.15Zm-8.73-3.52c0-1.2.7-2.1,1.78-2.1.98,0,1.37.75,1.37,1.59,0,1.28-1.13,2.16-2.46,3.04-.43-.88-.68-1.74-.68-2.53Zm-1.7,7.46c0-1.12.8-1.99,1.82-2.81,1,1.56,2.36,3.07,3.78,4.29-.83.71-1.78,1.18-2.76,1.18-1.59,0-2.85-1.06-2.85-2.67Zm25.61-10.6h-4.12v14.44h1.84v-5.73h2.37c3.16,0,5.33-1.42,5.33-4.46s-2.18-4.25-5.42-4.25Zm-.14,7.22h-2.14v-5.73h2.05c2.54,0,3.82.68,3.82,2.76s-1.21,2.97-3.73,2.97Zm20.14-3.16c0-3.01-2.11-4.06-5.05-4.06h-4.52v14.44h1.84v-6.1h2.61l3.48,6.1h2.08l-3.68-6.32c1.96-.48,3.25-1.81,3.25-4.06Zm-7.74-2.57h2.42c2.25,0,3.48.67,3.48,2.57s-1.24,2.78-3.48,2.78h-2.42v-5.36Zm18.1-1.75c-3.63,0-6.17,2.81-6.17,7.43s2.55,7.54,6.17,7.54,6.17-2.91,6.17-7.54-2.55-7.43-6.17-7.43Zm0,13.35c-2.58,0-4.27-2.32-4.27-5.92s1.7-5.82,4.27-5.82,4.27,2.22,4.27,5.82-1.7,5.92-4.27,5.92Zm14.98-13.09h-3.61v14.44h3.69c4.36,0,6.74-2.68,6.74-7.27s-2.38-7.17-6.82-7.17Zm-.14,12.93h-1.64v-11.43h1.64c3.38,0,5.06,2.01,5.06,5.66s-1.68,5.77-5.06,5.77Zm20.7-12.93h1.76v8.48c0,4.63-2.24,6.23-5.19,6.23s-5.19-1.59-5.19-6.23v-8.48h1.84v8.53c0,3.47,1.47,4.56,3.35,4.56s3.42-1.09,3.42-4.56v-8.53Zm16.6,11.47l1.01,1.15c-1.14,1.32-2.55,2.08-4.43,2.08-3.6,0-6.29-2.78-6.29-7.47s2.74-7.5,6.41-7.5c1.75,0,3.13.85,3.97,1.78l-1.01,1.2c-.76-.81-1.71-1.36-2.93-1.36-2.73,0-4.54,2.24-4.54,5.83s1.73,5.91,4.47,5.91c1.38,0,2.43-.6,3.35-1.62Zm4.02-11.47h10.58v1.56h-4.37v12.89h-1.84v-12.89h-4.37v-1.56Zm15.24,0h1.84v14.44h-1.84v-14.44Zm13.21-.26c-3.63,0-6.17,2.81-6.17,7.43s2.55,7.54,6.17,7.54,6.17-2.91,6.17-7.54-2.55-7.43-6.17-7.43Zm0,13.35c-2.58,0-4.27-2.32-4.27-5.92s1.7-5.82,4.27-5.82,4.27,2.22,4.27,5.82-1.7,5.92-4.27,5.92Zm19.9-13.09h1.75v14.44h-1.9l-5.23-9.09-1.56-2.98h-.09c.09,1.46.23,3,.23,4.51v7.56h-1.75v-14.44h1.9l5.23,9.08,1.56,2.99h.09c-.09-1.46-.23-3.08-.23-4.59v-7.47Zm-271.48-92.62h-25.52v-48.11h3.36v45.22h22.16v2.89Zm8.47-8.72c0,6.58,4.61,9.6,10.16,9.6,4.6,0,8.86-2.54,12.44-5.43h.16l.35,4.56h2.73v-22.4c0-7.5-2.8-13.53-11.11-13.53-5.69,0-10.56,2.8-13.04,4.56l1.49,2.39c2.35-1.78,6.44-4.12,11.17-4.12,6.89,0,8.37,5.77,8.26,11.15-15.59,1.72-22.61,5.43-22.61,13.22Zm22.61-10.77v11.93c-4.34,3.69-7.87,5.64-11.88,5.64s-7.43-1.93-7.43-6.96c0-5.59,4.92-8.94,19.32-10.6Zm39.35,19.49h-3.09v-48.11h4.76l10.04,28.22c1.27,3.55,2.53,7.12,3.8,10.69h.29c1.27-3.56,2.39-7.14,3.66-10.69l10.02-28.22h4.76v48.11h-3.24v-31.62c0-3.9.23-8.97.42-12.99h-.29l-3.74,10.73-10.37,28.64h-2.91l-10.44-28.64-3.8-10.73h-.29c.19,4.02.42,9.1.42,12.99v31.62Zm61.36-41.89l-1.8-1.66,9.83-11.49,2.42,2.15-10.45,11.01Zm-11.07,29.32v-22.48h3.23v22.06c0,7.43,2.35,10.96,7.99,10.96,4.18,0,7.2-2.19,11.3-7.15v-25.87h3.23v35.05h-2.73l-.35-5.87h-.16c-3.45,4.03-7.07,6.75-11.9,6.75-7.24,0-10.6-4.39-10.6-13.45Zm58.97,3.77c0-4.39-4.54-6.32-8.58-7.78-5.29-1.88-11.17-4.03-11.17-10.02,0-5.05,4-9.33,11.3-9.33,3.75,0,7.46,1.56,10.02,3.64l-1.74,2.32c-2.37-1.77-4.85-3.2-8.37-3.2-5.47,0-7.94,3.15-7.94,6.38,0,4,4.13,5.52,8.31,7.1,5.43,2.07,11.45,3.85,11.45,10.69,0,5.29-4.22,9.88-11.81,9.88-5.2,0-9.71-2.18-12.85-4.85l1.87-2.35c2.96,2.48,6.15,4.44,11.14,4.44,5.52,0,8.38-3.23,8.38-6.92Zm14.06-37.58c0-1.81,1.34-2.86,2.93-2.86s2.93,1.05,2.93,2.86c0,1.68-1.34,2.86-2.93,2.86s-2.93-1.18-2.93-2.86Zm1.26,11.33h3.23v35.05h-3.23v-35.05Zm16.54,17.59c0-11.72,7.49-18.47,16.02-18.47,4.77,0,7.88,2.12,10.26,4.32l-1.9,2.25c-2.26-2.1-4.88-3.72-8.29-3.72-7.17,0-12.7,6.4-12.7,15.62s5.04,15.49,12.66,15.49c3.75,0,6.98-1.81,9.39-4.04l1.66,2.26c-2.99,2.69-6.75,4.63-11.2,4.63-9.05,0-15.9-6.75-15.9-18.34Zm35.26,8.74c0,6.58,4.61,9.6,10.16,9.6,4.6,0,8.86-2.54,12.44-5.43h.16l.35,4.56h2.73v-22.4c0-7.5-2.8-13.53-11.11-13.53-5.69,0-10.56,2.8-13.04,4.56l1.49,2.39c2.35-1.78,6.44-4.12,11.17-4.12,6.89,0,8.37,5.77,8.26,11.15-15.59,1.72-22.61,5.43-22.61,13.22Zm22.61-10.77v11.93c-4.34,3.69-7.87,5.64-11.88,5.64s-7.43-1.93-7.43-6.96c0-5.59,4.92-8.94,19.32-10.6Z"/>
</svg>