<?xml version="1.0" encoding="UTF-8"?>
<svg id="Calque_2" data-name="Calque 2" xmlns="http://www.w3.org/2000/svg" viewBox="0 0 841.89 595.28">
  <defs>
    <style>
      .cls-1, .cls-2 {
        stroke-width: 0px;
      }

      .cls-2 {
        fill: #fff;
      }
    </style>
  </defs>
  <rect class="cls-1" x="-14.25" y="-13.42" width="870.24" height="623.62"/>
  <path class="cls-2" d="m412.61,197.65c-67.24,2.41-120.53,34.11-120.53,72.65s57.7,72.65,128.79,72.65,128.79-32.55,128.79-72.65-57.7-72.65-128.79-72.65c-2.78,0-5.52-.1-8.26,0Zm-21.46,14.03c17.94-1.84,40.52,6.48,59.44,23.53,28.33,25.54,37.93,61.34,21.46,80.08l-.41.41c-16.79,18.63-53.66,12.88-82.14-12.8-28.48-25.67-37.84-61.86-21.05-80.49,5.64-6.26,13.63-9.8,22.7-10.73Zm135.4,187.47h-211.37v-28.53h211.37v28.53Z"/>
</svg>