<?xml version="1.0" encoding="UTF-8" standalone="no"?>
<svg
   xmlns:dc="http://purl.org/dc/elements/1.1/"
   xmlns:cc="http://creativecommons.org/ns#"
   xmlns:rdf="http://www.w3.org/1999/02/22-rdf-syntax-ns#"
   xmlns:svg="http://www.w3.org/2000/svg"
   xmlns="http://www.w3.org/2000/svg"
   xmlns:sodipodi="http://sodipodi.sourceforge.net/DTD/sodipodi-0.dtd"
   xmlns:inkscape="http://www.inkscape.org/namespaces/inkscape"
   id="Calque_2"
   data-name="Calque 2"
   viewBox="0 0 305.42999 192.38"
   version="1.1"
   sodipodi:docname="LOGO-LaMusicaEsTuDios_Noir_trim.svg"
   width="305.42999"
   height="192.38"
   inkscape:version="0.92.5 (2060ec1f9f, 2020-04-08)">
  <metadata
     id="metadata13">
    <rdf:RDF>
      <cc:Work
         rdf:about="">
        <dc:format>image/svg+xml</dc:format>
        <dc:type
           rdf:resource="http://purl.org/dc/dcmitype/StillImage" />
        <dc:title></dc:title>
      </cc:Work>
    </rdf:RDF>
  </metadata>
  <sodipodi:namedview
     pagecolor="#ffffff"
     bordercolor="#666666"
     borderopacity="1"
     objecttolerance="10"
     gridtolerance="10"
     guidetolerance="10"
     inkscape:pageopacity="0"
     inkscape:pageshadow="2"
     inkscape:window-width="1085"
     inkscape:window-height="699"
     id="namedview11"
     showgrid="false"
     units="px"
     fit-margin-top="20"
     fit-margin-left="0"
     fit-margin-right="0"
     fit-margin-bottom="10"
     inkscape:zoom="0.87521834"
     inkscape:cx="162.10501"
     inkscape:cy="101.94996"
     inkscape:window-x="2175"
     inkscape:window-y="598"
     inkscape:window-maximized="0"
     inkscape:current-layer="Calque_2"
     showguides="true"
     inkscape:guide-bbox="true">
    <sodipodi:guide
       position="-110.54634,166.8155"
       orientation="0,1"
       id="guide3737"
       inkscape:locked="false" />
  </sodipodi:namedview>
  <defs
     id="defs4">
    <style
       id="style2">
      .cls-1 {
        stroke-width: 0px;
      }
    </style>
  </defs>
  <path
     class="cls-1"
     d="m 236.8,93.44 c -15.22,0.54 -27.29,7.72 -27.29,16.45 0,8.73 13.06,16.45 29.16,16.45 16.1,0 29.16,-7.37 29.16,-16.45 0,-9.08 -13.06,-16.45 -29.16,-16.45 -0.63,0 -1.25,-0.02 -1.87,0 z m -4.86,3.18 c 4.06,-0.42 9.17,1.47 13.46,5.33 6.41,5.78 8.59,13.89 4.86,18.13 l -0.09,0.09 c -3.8,4.22 -12.15,2.92 -18.6,-2.9 -6.45,-5.81 -8.57,-14.01 -4.77,-18.22 1.28,-1.42 3.09,-2.22 5.14,-2.43 z m 30.65,42.44 h -47.85 v -6.46 h 47.85 z"
     id="path6"
     inkscape:connector-curvature="0"
     style="stroke-width:0px" />
  <path
     class="cls-1"
     d="m 199.78,123.4 v -9.95 l 0.22,-10.88 -1.29,-0.8 -15.86,5.03 C 180.12,96.13 171.29,89.81 158.15,89.81 h -22.29 v 4.03 l 5.65,0.58 c 0.12,6.21 0.12,12.45 0.12,18.64 v 2.52 c 0,6.59 0,12.96 -0.13,19.18 l -5.92,0.38 v -21.62 l 0.23,-10.61 -1.18,-0.8 -14.92,2.44 v 2.89 l 4.08,0.94 -0.24,21.16 c -2.02,1.96 -4.4,3.42 -6.47,3.42 -2.56,0 -4.07,-1.51 -4.07,-6.19 v -13.26 l 0.38,-10.61 -1.18,-0.8 -9.15,1.3 -0.22,-13.6 H 62.81 l -0.27,13.42 c -2.64,-0.97 -5.31,-1.5 -8.38,-1.5 -10.11,0 -15.66,5.35 -15.66,12.26 0,5.64 3.28,9.49 9.08,11.19 l 4.04,1.17 c 4.94,1.45 6.33,3 6.33,5.36 0,3.02 -2.38,4.42 -6.69,4.42 -2.89,0 -5.2,-0.73 -7.77,-2.1 l -1.29,-7.9 h -4.03 v 0.05 h -0.66 l -1.5,8.73 H 17.47 c -0.12,-6.25 -0.13,-12.57 -0.13,-19.04 h 8.19 l 0.87,5.83 h 4.35 V 105.54 H 26.4 l -0.92,5.9 h -8.13 c 0,-5.87 0.02,-11.68 0.13,-17.39 h 12.59 l 1.49,8.68 h 6.26 L 37.3,89.81 H 0 v 4.03 l 4.65,0.58 c 0.12,6.21 0.12,12.45 0.12,18.64 v 2.78 c 0,6.29 0,12.52 -0.12,18.64 L 0,135.06 v 4.03 h 43.27 v 0 c 2.48,0.77 5.1,1.17 7.98,1.17 10.57,0 16.96,-4.56 16.96,-12.49 0,-5.57 -2.85,-9.47 -9.97,-11.6 l -3.66,-1.04 c -5.15,-1.55 -6.27,-2.99 -6.27,-5.06 0,-2.72 2.24,-4.2 5.59,-4.2 1.69,0 2.95,0.18 4.12,0.58 l 1.52,6.53 h 2.84 l 5.83,0.1 2.11,-19.03 h 6.08 c 0.12,6.33 0.13,12.7 0.13,19.01 v 2.78 c 0,6.3 0,12.55 -0.12,18.68 l -4.4,0.54 v 4.03 H 95.7 v -4.03 l -6.46,-0.64 C 89.13,128.23 89.12,122 89.12,115.79 v -2.72 c 0,-6.42 0,-12.78 0.13,-19.01 h 6.27 l 1.44,10.23 h -0.02 c 0,0 0.47,3.27 0.47,3.27 l 3.82,0.86 -0.25,18.32 c -0.13,9.9 4.16,13.5 10.59,13.5 4.81,0 8.9,-2.39 12.17,-6.61 l 0.44,6.29 17.54,-0.82 h 15.13 c 16.39,0 26.95,-9.12 26.95,-24.78 0,-1.42 -0.11,-2.77 -0.28,-4.09 l 4.15,0.16 c 0.15,3 0.22,5.33 0.22,9.45 v 3.58 c 0,3.27 -0.04,7.72 -0.11,11.24 l -4.88,0.92 v 3.49 h 20.9 v -3.49 l -3.89,-0.8 c -0.07,-3.58 -0.11,-8.11 -0.11,-11.36 z m -42.92,11.36 h -2.49 c -0.12,-6.32 -0.13,-12.7 -0.13,-19.24 v -2.47 c 0,-6.39 0,-12.72 0.13,-18.93 H 157 c 8.45,0 13.76,7.09 13.76,20.29 0,13.2 -5.31,20.35 -13.9,20.35 z m 30.62,-44.52 c 0,-3.5 2.82,-5.97 6.36,-5.97 3.54,0 6.36,2.47 6.36,5.97 0,3.5 -2.83,5.97 -6.36,5.97 -3.53,0 -6.36,-2.49 -6.36,-5.97 z m 100.99,50.05 c -4.9,0 -9.1,-1.14 -13.05,-3.45 l 0.19,-9.2 h 6.03 l 1.26,7.42 c 1.78,0.71 3.55,1.09 5.61,1.09 4.31,0 6.69,-1.41 6.69,-4.42 0,-2.36 -1.38,-3.9 -6.33,-5.36 l -4.04,-1.17 c -5.8,-1.7 -9.08,-5.54 -9.08,-11.19 0,-6.92 5.55,-12.26 15.66,-12.26 4.43,0 8.01,1.07 11.89,3.02 l -0.52,8.22 h -6.02 l -1.52,-6.53 c -1.17,-0.4 -2.43,-0.58 -4.12,-0.58 -3.35,0 -5.59,1.48 -5.59,4.2 0,2.08 1.12,3.51 6.27,5.06 l 3.66,1.04 c 7.12,2.13 9.97,6.03 9.97,11.6 0,7.93 -6.39,12.49 -16.96,12.49 z M 14.51,171.73 c 0,-3.01 -2.11,-4.06 -5.05,-4.06 H 4.94 v 14.44 h 1.84 v -6.1 h 2.61 l 3.48,6.1 h 2.08 l -3.68,-6.32 c 1.96,-0.48 3.25,-1.81 3.25,-4.06 z m -7.74,-2.57 h 2.42 c 2.25,0 3.48,0.67 3.48,2.57 0,1.9 -1.24,2.78 -3.48,2.78 H 6.77 v -5.36 z m 14.61,11.39 h 6.71 v 1.56 h -8.54 v -14.44 h 8.32 v 1.56 h -6.49 v 4.52 h 5.47 v 1.56 h -5.47 v 5.25 z m 20.72,-1.42 1.01,1.15 c -1.14,1.32 -2.55,2.08 -4.43,2.08 -3.6,0 -6.29,-2.78 -6.29,-7.47 0,-4.69 2.74,-7.5 6.41,-7.5 1.75,0 3.13,0.85 3.97,1.78 l -1.01,1.2 c -0.76,-0.81 -1.71,-1.36 -2.93,-1.36 -2.73,0 -4.54,2.24 -4.54,5.83 0,3.59 1.73,5.91 4.47,5.91 1.38,0 2.43,-0.6 3.35,-1.62 z M 52.57,167.4 c -3.63,0 -6.17,2.81 -6.17,7.43 0,4.62 2.55,7.54 6.17,7.54 3.62,0 6.17,-2.91 6.17,-7.54 0,-4.63 -2.55,-7.43 -6.17,-7.43 z m 0,13.35 c -2.58,0 -4.27,-2.32 -4.27,-5.92 0,-3.6 1.7,-5.82 4.27,-5.82 2.57,0 4.27,2.22 4.27,5.82 0,3.6 -1.7,5.92 -4.27,5.92 z m 20.94,-9.03 c 0,-3.01 -2.11,-4.06 -5.05,-4.06 h -4.52 v 14.44 h 1.84 V 176 h 2.61 l 3.48,6.1 h 2.08 l -3.68,-6.32 c 1.96,-0.48 3.25,-1.81 3.25,-4.06 z m -7.74,-2.57 h 2.42 c 2.25,0 3.48,0.67 3.48,2.57 0,1.9 -1.24,2.78 -3.48,2.78 h -2.42 v -5.36 z m 16.38,-1.49 h -3.61 v 14.44 h 3.69 c 4.36,0 6.74,-2.68 6.74,-7.27 0,-4.59 -2.38,-7.17 -6.82,-7.17 z m -0.14,12.93 h -1.64 v -11.43 h 1.64 c 3.38,0 5.06,2.01 5.06,5.66 0,3.65 -1.68,5.77 -5.06,5.77 z m 12.14,-12.93 h 1.84 v 14.44 h -1.84 z m 16.41,0 h 1.75 v 14.44 h -1.9 l -5.23,-9.09 -1.56,-2.98 h -0.09 c 0.09,1.46 0.23,3 0.23,4.51 v 7.56 h -1.75 v -14.44 h 1.9 l 5.23,9.08 1.56,2.99 h 0.09 c -0.09,-1.46 -0.23,-3.08 -0.23,-4.59 v -7.47 z m 13.19,6.96 h 4.73 v 6.07 c -0.93,0.97 -2.51,1.68 -4.45,1.68 -3.81,0 -6.52,-2.78 -6.52,-7.47 0,-4.69 2.8,-7.5 6.63,-7.5 2,0 3.32,0.91 4.16,1.78 l -1.01,1.2 c -0.73,-0.75 -1.66,-1.36 -3.11,-1.36 -2.91,0 -4.78,2.24 -4.78,5.83 0,3.59 1.72,5.91 4.8,5.91 1.04,0 2.03,-0.31 2.6,-0.85 v -3.76 h -3.06 v -1.52 z m 27.67,-0.3 h -1.68 c -0.45,1.65 -1.15,3.07 -2.06,4.24 -1.35,-1.12 -2.68,-2.56 -3.63,-4.03 1.61,-1.16 3.25,-2.38 3.25,-4.27 0,-1.68 -1.05,-2.86 -2.84,-2.86 -2,0 -3.33,1.5 -3.33,3.43 0,1.04 0.36,2.2 0.95,3.37 -1.49,1.03 -2.85,2.23 -2.85,4.18 0,2.32 1.79,4 4.4,4 1.71,0 3.06,-0.66 4.17,-1.68 1.16,0.83 2.29,1.4 3.3,1.68 l 0.49,-1.51 c -0.81,-0.23 -1.74,-0.72 -2.72,-1.39 1.14,-1.51 1.98,-3.25 2.54,-5.15 z m -8.73,-3.52 c 0,-1.2 0.7,-2.1 1.78,-2.1 0.98,0 1.37,0.75 1.37,1.59 0,1.28 -1.13,2.16 -2.46,3.04 -0.43,-0.88 -0.68,-1.74 -0.68,-2.53 z m -1.7,7.46 c 0,-1.12 0.8,-1.99 1.82,-2.81 1,1.56 2.36,3.07 3.78,4.29 -0.83,0.71 -1.78,1.18 -2.76,1.18 -1.59,0 -2.85,-1.06 -2.85,-2.67 z m 25.61,-10.6 h -4.12 v 14.44 h 1.84 v -5.73 h 2.37 c 3.16,0 5.33,-1.42 5.33,-4.46 0,-3.04 -2.18,-4.25 -5.42,-4.25 z m -0.14,7.22 h -2.14 v -5.73 h 2.05 c 2.54,0 3.82,0.68 3.82,2.76 0,2.08 -1.21,2.97 -3.73,2.97 z m 20.14,-3.16 c 0,-3.01 -2.11,-4.06 -5.05,-4.06 h -4.52 v 14.44 h 1.84 V 176 h 2.61 l 3.48,6.1 h 2.08 l -3.68,-6.32 c 1.96,-0.48 3.25,-1.81 3.25,-4.06 z m -7.74,-2.57 h 2.42 c 2.25,0 3.48,0.67 3.48,2.57 0,1.9 -1.24,2.78 -3.48,2.78 h -2.42 v -5.36 z m 18.1,-1.75 c -3.63,0 -6.17,2.81 -6.17,7.43 0,4.62 2.55,7.54 6.17,7.54 3.62,0 6.17,-2.91 6.17,-7.54 0,-4.63 -2.55,-7.43 -6.17,-7.43 z m 0,13.35 c -2.58,0 -4.27,-2.32 -4.27,-5.92 0,-3.6 1.7,-5.82 4.27,-5.82 2.57,0 4.27,2.22 4.27,5.82 0,3.6 -1.7,5.92 -4.27,5.92 z m 14.98,-13.09 h -3.61 v 14.44 h 3.69 c 4.36,0 6.74,-2.68 6.74,-7.27 0,-4.59 -2.38,-7.17 -6.82,-7.17 z m -0.14,12.93 h -1.64 v -11.43 h 1.64 c 3.38,0 5.06,2.01 5.06,5.66 0,3.65 -1.68,5.77 -5.06,5.77 z m 20.7,-12.93 h 1.76 v 8.48 c 0,4.63 -2.24,6.23 -5.19,6.23 -2.95,0 -5.19,-1.59 -5.19,-6.23 v -8.48 h 1.84 v 8.53 c 0,3.47 1.47,4.56 3.35,4.56 1.88,0 3.42,-1.09 3.42,-4.56 v -8.53 z m 16.6,11.47 1.01,1.15 c -1.14,1.32 -2.55,2.08 -4.43,2.08 -3.6,0 -6.29,-2.78 -6.29,-7.47 0,-4.69 2.74,-7.5 6.41,-7.5 1.75,0 3.13,0.85 3.97,1.78 l -1.01,1.2 c -0.76,-0.81 -1.71,-1.36 -2.93,-1.36 -2.73,0 -4.54,2.24 -4.54,5.83 0,3.59 1.73,5.91 4.47,5.91 1.38,0 2.43,-0.6 3.35,-1.62 z m 4.02,-11.47 h 10.58 v 1.56 h -4.37 v 12.89 h -1.84 v -12.89 h -4.37 z m 15.24,0 h 1.84 v 14.44 h -1.84 z m 13.21,-0.26 c -3.63,0 -6.17,2.81 -6.17,7.43 0,4.62 2.55,7.54 6.17,7.54 3.62,0 6.17,-2.91 6.17,-7.54 0,-4.63 -2.55,-7.43 -6.17,-7.43 z m 0,13.35 c -2.58,0 -4.27,-2.32 -4.27,-5.92 0,-3.6 1.7,-5.82 4.27,-5.82 2.57,0 4.27,2.22 4.27,5.82 0,3.6 -1.7,5.92 -4.27,5.92 z m 19.9,-13.09 h 1.75 v 14.44 h -1.9 l -5.23,-9.09 -1.56,-2.98 h -0.09 c 0.09,1.46 0.23,3 0.23,4.51 v 7.56 h -1.75 v -14.44 h 1.9 l 5.23,9.08 1.56,2.99 h 0.09 c -0.09,-1.46 -0.23,-3.08 -0.23,-4.59 v -7.47 z M 29.99,75.04 H 4.47 V 26.93 h 3.36 v 45.22 h 22.16 z m 8.47,-8.72 c 0,6.58 4.61,9.6 10.16,9.6 4.6,0 8.86,-2.54 12.44,-5.43 h 0.16 l 0.35,4.56 h 2.73 v -22.4 c 0,-7.5 -2.8,-13.53 -11.11,-13.53 -5.69,0 -10.56,2.8 -13.04,4.56 l 1.49,2.39 c 2.35,-1.78 6.44,-4.12 11.17,-4.12 6.89,0 8.37,5.77 8.26,11.15 -15.59,1.72 -22.61,5.43 -22.61,13.22 z M 61.07,55.55 v 11.93 c -4.34,3.69 -7.87,5.64 -11.88,5.64 -4.01,0 -7.43,-1.93 -7.43,-6.96 0,-5.59 4.92,-8.94 19.32,-10.6 z m 39.35,19.49 H 97.33 V 26.93 h 4.76 l 10.04,28.22 c 1.27,3.55 2.53,7.12 3.8,10.69 h 0.29 c 1.27,-3.56 2.39,-7.14 3.66,-10.69 L 129.9,26.93 h 4.76 v 48.11 h -3.24 V 43.42 c 0,-3.9 0.23,-8.97 0.42,-12.99 h -0.29 l -3.74,10.73 -10.37,28.64 h -2.91 L 104.09,41.16 100.29,30.43 H 100 c 0.19,4.02 0.42,9.1 0.42,12.99 z m 61.36,-41.89 -1.8,-1.66 9.83,-11.49 2.42,2.15 -10.45,11.01 z M 150.71,62.47 V 39.99 h 3.23 v 22.06 c 0,7.43 2.35,10.96 7.99,10.96 4.18,0 7.2,-2.19 11.3,-7.15 V 39.99 h 3.23 v 35.05 h -2.73 l -0.35,-5.87 h -0.16 c -3.45,4.03 -7.07,6.75 -11.9,6.75 -7.24,0 -10.6,-4.39 -10.6,-13.45 z m 58.97,3.77 c 0,-4.39 -4.54,-6.32 -8.58,-7.78 -5.29,-1.88 -11.17,-4.03 -11.17,-10.02 0,-5.05 4,-9.33 11.3,-9.33 3.75,0 7.46,1.56 10.02,3.64 l -1.74,2.32 c -2.37,-1.77 -4.85,-3.2 -8.37,-3.2 -5.47,0 -7.94,3.15 -7.94,6.38 0,4 4.13,5.52 8.31,7.1 5.43,2.07 11.45,3.85 11.45,10.69 0,5.29 -4.22,9.88 -11.81,9.88 -5.2,0 -9.71,-2.18 -12.85,-4.85 l 1.87,-2.35 c 2.96,2.48 6.15,4.44 11.14,4.44 5.52,0 8.38,-3.23 8.38,-6.92 z m 14.06,-37.58 c 0,-1.81 1.34,-2.86 2.93,-2.86 1.59,0 2.93,1.05 2.93,2.86 0,1.68 -1.34,2.86 -2.93,2.86 -1.59,0 -2.93,-1.18 -2.93,-2.86 z M 225,39.99 h 3.23 V 75.04 H 225 Z m 16.54,17.59 c 0,-11.72 7.49,-18.47 16.02,-18.47 4.77,0 7.88,2.12 10.26,4.32 l -1.9,2.25 c -2.26,-2.1 -4.88,-3.72 -8.29,-3.72 -7.17,0 -12.7,6.4 -12.7,15.62 0,9.22 5.04,15.49 12.66,15.49 3.75,0 6.98,-1.81 9.39,-4.04 l 1.66,2.26 c -2.99,2.69 -6.75,4.63 -11.2,4.63 -9.05,0 -15.9,-6.75 -15.9,-18.34 z m 35.26,8.74 c 0,6.58 4.61,9.6 10.16,9.6 4.6,0 8.86,-2.54 12.44,-5.43 h 0.16 l 0.35,4.56 h 2.73 v -22.4 c 0,-7.5 -2.8,-13.53 -11.11,-13.53 -5.69,0 -10.56,2.8 -13.04,4.56 l 1.49,2.39 c 2.35,-1.78 6.44,-4.12 11.17,-4.12 6.89,0 8.37,5.77 8.26,11.15 -15.59,1.72 -22.61,5.43 -22.61,13.22 z m 22.61,-10.77 v 11.93 c -4.34,3.69 -7.87,5.64 -11.88,5.64 -4.01,0 -7.43,-1.93 -7.43,-6.96 0,-5.59 4.92,-8.94 19.32,-10.6 z"
     id="path8"
     inkscape:connector-curvature="0"
     style="stroke-width:0px" />
</svg>
